<svg width="401" height="301" viewBox="0 0 401 301" fill="none" xmlns="http://www.w3.org/2000/svg">
<path d="M400.143 97.9146V28.7456L397.316 25.1701V10.79H377.426L370.621 2.17649H302.671L295.866 10.79H259.753L256.523 6.70049H162.664L159.434 10.79H122.449L114.187 0.333008H71.8064L63.5441 10.79H3.26625V30.7034L0.162028 34.6337V61.4519L3.26625 65.3807V147.039L0.162028 150.967V177.787L3.26625 181.716V215.989L0.142578 219.944V273.935L3.26625 277.888V291.321H17.34L24.4604 300.333H60.2705L67.392 291.321H201.055L204.935 296.232H284.613L288.493 291.321H333.521L340.642 300.333H376.453L383.573 291.321H397.316V257.72L399.639 254.782V153.939L397.316 151.001V101.492L400.143 97.9146Z" fill="#FFC107"/>
<path d="M389.915 179.827V110.656L392.741 107.081V16.582H285.951L280.45 23.5432H212.501L207 16.582H144.353L141.229 20.5355H98.57L95.4452 16.582H7.84375V49.9646L12.2798 55.5791V109.57L7.84375 115.185V285.528H392.741V183.402L389.915 179.827Z" fill="url(#paint0_radial_1102_5206)"/>
<path d="M279.764 261.081H242.941L240.057 257.431H160.378L157.493 261.081H120.816L101.191 285.919H160.69H239.89H299.388L279.764 261.081Z" fill="#FFC107"/>
<path d="M20.1963 28.1009C20.1963 29.7011 19.1711 30.9986 17.9067 30.9986C16.6424 30.9986 15.6172 29.7011 15.6172 28.1009C15.6172 26.5007 16.6424 25.2031 17.9067 25.2031C19.1711 25.2031 20.1963 26.5007 20.1963 28.1009Z" fill="url(#paint1_linear_1102_5206)"/>
<path d="M31.7822 28.1009C31.7822 29.7011 30.757 30.9986 29.4927 30.9986C28.2283 30.9986 27.2031 29.7011 27.2031 28.1009C27.2031 26.5007 28.2283 25.2031 29.4927 25.2031C30.757 25.2031 31.7822 26.5007 31.7822 28.1009Z" fill="url(#paint2_linear_1102_5206)"/>
<path d="M43.3643 28.1009C43.3643 29.7011 42.3391 30.9986 41.0747 30.9986C39.8104 30.9986 38.7852 29.7011 38.7852 28.1009C38.7852 26.5007 39.8104 25.2031 41.0747 25.2031C42.3402 25.2031 43.3643 26.5007 43.3643 28.1009Z" fill="url(#paint3_linear_1102_5206)"/>
<path d="M52.6606 30.9986C53.9251 30.9986 54.9502 29.7012 54.9502 28.1009C54.9502 26.5005 53.9251 25.2031 52.6606 25.2031C51.3962 25.2031 50.3711 26.5005 50.3711 28.1009C50.3711 29.7012 51.3962 30.9986 52.6606 30.9986Z" fill="url(#paint4_linear_1102_5206)"/>
<path d="M66.5342 28.1009C66.5342 29.7011 65.509 30.9986 64.2446 30.9986C62.9803 30.9986 61.9551 29.7011 61.9551 28.1009C61.9551 26.5007 62.9803 25.2031 64.2446 25.2031C65.509 25.2031 66.5342 26.5007 66.5342 28.1009Z" fill="url(#paint5_linear_1102_5206)"/>
<path d="M383.288 263.988C384.552 263.988 385.577 265.286 385.577 266.886C385.577 268.486 384.552 269.784 383.288 269.784C382.023 269.784 380.998 268.486 380.998 266.886C380.998 265.286 382.023 263.988 383.288 263.988Z" fill="url(#paint6_linear_1102_5206)"/>
<path d="M383.288 249.326C384.552 249.326 385.577 250.624 385.577 252.224C385.577 253.824 384.552 255.122 383.288 255.122C382.023 255.122 380.998 253.824 380.998 252.224C380.998 250.622 382.023 249.326 383.288 249.326Z" fill="url(#paint7_linear_1102_5206)"/>
<path d="M383.288 234.664C384.552 234.664 385.577 235.962 385.577 237.562C385.577 239.162 384.552 240.46 383.288 240.46C382.023 240.46 380.998 239.162 380.998 237.562C380.998 235.962 382.023 234.664 383.288 234.664Z" fill="url(#paint8_linear_1102_5206)"/>
<path d="M383.288 220.004C384.552 220.004 385.577 221.301 385.577 222.902C385.577 224.502 384.552 225.799 383.288 225.799C382.023 225.799 380.998 224.502 380.998 222.902C380.998 221.3 382.023 220.004 383.288 220.004Z" fill="url(#paint9_linear_1102_5206)"/>
<path d="M383.288 205.341C384.552 205.341 385.577 206.638 385.577 208.239C385.577 209.839 384.552 211.136 383.288 211.136C382.023 211.136 380.998 209.839 380.998 208.239C380.998 206.638 382.023 205.341 383.288 205.341Z" fill="url(#paint10_linear_1102_5206)"/>
<defs>
<radialGradient id="paint0_radial_1102_5206" cx="0" cy="0" r="1" gradientUnits="userSpaceOnUse" gradientTransform="translate(182.716 370.83) scale(280.721 355.29)">
<stop stop-color="#372708"/>
<stop offset="1" stop-color="#020500"/>
</radialGradient>
<linearGradient id="paint1_linear_1102_5206" x1="16.5851" y1="26.2601" x2="20.6643" y2="29.8046" gradientUnits="userSpaceOnUse">
<stop stop-color="#FFC107"/>
<stop offset="1" stop-color="#FFA726"/>
</linearGradient>
<linearGradient id="paint2_linear_1102_5206" x1="28.1705" y1="26.2601" x2="32.2499" y2="29.8045" gradientUnits="userSpaceOnUse">
<stop stop-color="#FFC107"/>
<stop offset="1" stop-color="#FFA726"/>
</linearGradient>
<linearGradient id="paint3_linear_1102_5206" x1="39.7534" y1="26.2601" x2="43.8326" y2="29.8046" gradientUnits="userSpaceOnUse">
<stop stop-color="#FFC107"/>
<stop offset="1" stop-color="#FFA726"/>
</linearGradient>
<linearGradient id="paint4_linear_1102_5206" x1="51.3389" y1="26.2601" x2="55.4182" y2="29.8045" gradientUnits="userSpaceOnUse">
<stop stop-color="#FFC107"/>
<stop offset="1" stop-color="#FFA726"/>
</linearGradient>
<linearGradient id="paint5_linear_1102_5206" x1="62.9225" y1="26.2601" x2="67.0018" y2="29.8045" gradientUnits="userSpaceOnUse">
<stop stop-color="#FFC107"/>
<stop offset="1" stop-color="#FFA726"/>
</linearGradient>
<linearGradient id="paint6_linear_1102_5206" x1="381.834" y1="268.559" x2="386.127" y2="265.475" gradientUnits="userSpaceOnUse">
<stop stop-color="#FFC107"/>
<stop offset="1" stop-color="#FFA726"/>
</linearGradient>
<linearGradient id="paint7_linear_1102_5206" x1="381.834" y1="253.897" x2="386.127" y2="250.812" gradientUnits="userSpaceOnUse">
<stop stop-color="#FFC107"/>
<stop offset="1" stop-color="#FFA726"/>
</linearGradient>
<linearGradient id="paint8_linear_1102_5206" x1="381.834" y1="239.235" x2="386.127" y2="236.15" gradientUnits="userSpaceOnUse">
<stop stop-color="#FFC107"/>
<stop offset="1" stop-color="#FFA726"/>
</linearGradient>
<linearGradient id="paint9_linear_1102_5206" x1="381.834" y1="224.574" x2="386.127" y2="221.489" gradientUnits="userSpaceOnUse">
<stop stop-color="#FFC107"/>
<stop offset="1" stop-color="#FFA726"/>
</linearGradient>
<linearGradient id="paint10_linear_1102_5206" x1="381.834" y1="209.911" x2="386.127" y2="206.826" gradientUnits="userSpaceOnUse">
<stop stop-color="#FFC107"/>
<stop offset="1" stop-color="#FFA726"/>
</linearGradient>
</defs>
</svg>
